<svg width="400" height="400" viewBox="0 0 800 800" xmlns="http://www.w3.org/2000/svg">
<!-- Background / Light Squares -->
<rect width="800" height="800" fill="#f0d9b5" />

<!-- Group for Dark Rounded Squares -->

<g fill="#b58863">
<!-- Row 1 -->
<rect x="105" y="5" width="90" height="90" rx="15" />
<rect x="305" y="5" width="90" height="90" rx="15" />
<rect x="505" y="5" width="90" height="90" rx="15" />
<rect x="705" y="5" width="90" height="90" rx="15" />

<!-- Row 2 -->
<rect x="5" y="105" width="90" height="90" rx="15" />
<rect x="205" y="105" width="90" height="90" rx="15" />
<rect x="405" y="105" width="90" height="90" rx="15" />
<rect x="605" y="105" width="90" height="90" rx="15" />

<!-- Row 3 -->
<rect x="105" y="205" width="90" height="90" rx="15" />
<rect x="305" y="205" width="90" height="90" rx="15" />
<rect x="505" y="205" width="90" height="90" rx="15" />
<rect x="705" y="205" width="90" height="90" rx="15" />

<!-- Row 4 -->
<rect x="5" y="305" width="90" height="90" rx="15" />
<rect x="205" y="305" width="90" height="90" rx="15" />
<rect x="405" y="305" width="90" height="90" rx="15" />
<rect x="605" y="305" width="90" height="90" rx="15" />

<!-- Row 5 -->
<rect x="105" y="405" width="90" height="90" rx="15" />
<rect x="305" y="405" width="90" height="90" rx="15" />
<rect x="505" y="405" width="90" height="90" rx="15" />
<rect x="705" y="405" width="90" height="90" rx="15" />

<!-- Row 6 -->
<rect x="5" y="505" width="90" height="90" rx="15" />
<rect x="205" y="505" width="90" height="90" rx="15" />
<rect x="405" y="505" width="90" height="90" rx="15" />
<rect x="605" y="505" width="90" height="90" rx="15" />

<!-- Row 7 -->
<rect x="105" y="605" width="90" height="90" rx="15" />
<rect x="305" y="605" width="90" height="90" rx="15" />
<rect x="505" y="605" width="90" height="90" rx="15" />
<rect x="705" y="605" width="90" height="90" rx="15" />

<!-- Row 8 -->
<rect x="5" y="705" width="90" height="90" rx="15" />
<rect x="205" y="705" width="90" height="90" rx="15" />
<rect x="405" y="705" width="90" height="90" rx="15" />
<rect x="605" y="705" width="90" height="90" rx="15" />


</g>
</svg>
